<mxfile host="app.diagrams.net" modified="2021-12-07T09:54:44.395Z" agent="5.0 (Windows NT 10.0; Win64; x64) AppleWebKit/537.36 (KHTML, like Gecko) Chrome/96.0.4664.45 Safari/537.36" etag="3qVXTozKx7YKu9Rz7Oeh" version="15.9.1" type="github">
  <diagram name="Page-1" id="d9b1e647-80fa-b4a2-5024-87a742678bcc">
    <mxGraphModel dx="2522" dy="762" grid="1" gridSize="10" guides="1" tooltips="1" connect="1" arrows="1" fold="1" page="1" pageScale="1" pageWidth="1100" pageHeight="850" background="none" math="0" shadow="0">
      <root>
        <mxCell id="0" />
        <mxCell id="1" parent="0" />
        <mxCell id="57fe6abec08f04cb-1" value="&lt;font face=&quot;helvetica neue, helvetica, tahoma, arial, pingfang sc, source han sans cn, source han sans, source han serif, hiragino sans gb, wenquanyi micro hei, microsoft yahei, sans-serif&quot; style=&quot;font-size: 25px&quot;&gt;&amp;nbsp;Jenkinsfile&lt;/font&gt;" style="shape=step;whiteSpace=wrap;html=1;fontSize=25;fillColor=#0080FF;fontColor=#FFFFFF;strokeColor=none;" parent="1" vertex="1">
          <mxGeometry x="90" y="180" width="170" height="80" as="geometry" />
        </mxCell>
        <mxCell id="57fe6abec08f04cb-2" value="Jenkins &lt;br&gt;专案&amp;nbsp;" style="shape=step;whiteSpace=wrap;html=1;fontSize=28;fillColor=#0075E8;fontColor=#FFFFFF;strokeColor=none;" parent="1" vertex="1">
          <mxGeometry x="240" y="180" width="170" height="80" as="geometry" />
        </mxCell>
        <mxCell id="57fe6abec08f04cb-3" value="设定参数" style="shape=step;whiteSpace=wrap;html=1;fontSize=28;fillColor=#0067CC;fontColor=#FFFFFF;strokeColor=none;" parent="1" vertex="1">
          <mxGeometry x="390" y="180" width="170" height="80" as="geometry" />
        </mxCell>
        <mxCell id="57fe6abec08f04cb-4" value="July" style="shape=step;whiteSpace=wrap;html=1;fontSize=28;fillColor=#0062C4;fontColor=#FFFFFF;strokeColor=none;" parent="1" vertex="1">
          <mxGeometry x="540" y="180" width="170" height="80" as="geometry" />
        </mxCell>
        <mxCell id="57fe6abec08f04cb-5" value="Sep" style="shape=step;whiteSpace=wrap;html=1;fontSize=28;fillColor=#0059B0;fontColor=#FFFFFF;strokeColor=none;" parent="1" vertex="1">
          <mxGeometry x="690" y="180" width="170" height="80" as="geometry" />
        </mxCell>
        <mxCell id="57fe6abec08f04cb-6" value="Nov" style="shape=step;whiteSpace=wrap;html=1;fontSize=28;fillColor=#004D99;fontColor=#FFFFFF;strokeColor=none;" parent="1" vertex="1">
          <mxGeometry x="840" y="180" width="170" height="80" as="geometry" />
        </mxCell>
        <mxCell id="57fe6abec08f04cb-7" value="部署专案开通" style="text;html=1;strokeColor=none;fillColor=#61BAFF;align=center;verticalAlign=middle;whiteSpace=wrap;fontSize=54;fontStyle=1;fontColor=#004D99;" parent="1" vertex="1">
          <mxGeometry x="120" y="110" width="860" height="60" as="geometry" />
        </mxCell>
        <mxCell id="57fe6abec08f04cb-8" value="设置应用部署时的执行脚本&lt;br&gt;&lt;br&gt;&lt;br&gt;表单内容：&lt;br&gt;&amp;nbsp;1.&amp;nbsp;&lt;br&gt;&amp;nbsp;2.&amp;nbsp;&lt;br&gt;&lt;br&gt;&lt;br&gt;检核内容：&lt;br&gt;1. 查询租户部署参数文件列表&lt;br&gt;2.&amp;nbsp;新增按钮【核检】，检查内容为：&lt;div&gt;&amp;nbsp; &amp;nbsp; &amp;nbsp;① 参数key和value 首尾是否有空格&lt;br&gt;&lt;/div&gt;&lt;div&gt;&amp;nbsp; &amp;nbsp; ② appid是否含有大写字母。&lt;/div&gt;&lt;div&gt;&amp;nbsp; &amp;nbsp; ③各个参数是否按规则填写。&lt;/div&gt;" style="text;spacingTop=-5;fillColor=#ffffff;whiteSpace=wrap;html=1;align=left;fontSize=12;fontFamily=Helvetica;fillColor=none;strokeColor=none;" parent="1" vertex="1">
          <mxGeometry x="100" y="280" width="140" height="470" as="geometry" />
        </mxCell>
        <mxCell id="57fe6abec08f04cb-9" value="Lorem ipsum dolor sit amet, consectetur adipisicing elit, sed do eiusmod tempor incididunt ut labore et dolore magna aliqua. Ut enim ad minim veniam, quis nostrud exercitation ullamco laboris nisi ut aliquip ex ea commodo consequat. Duis aute irure dolor in reprehenderit in voluptate velit esse cillum dolore eu fugiat nulla pariatur. Excepteur sint occaecat cupidatat non proident, sunt in culpa qui officia deserunt mollit anim id est laborum.&lt;br&gt;Sed ut perspiciatis unde omnis iste natus error sit voluptatem accusantium doloremque laudantium, totam rem aperiam, eaque ipsa quae ab illo inventore veritatis et quasi architecto beatae vitae dicta sunt explicabo." style="text;spacingTop=-5;fillColor=#ffffff;whiteSpace=wrap;html=1;align=left;fontSize=12;fontFamily=Helvetica;fillColor=none;strokeColor=none;" parent="1" vertex="1">
          <mxGeometry x="250" y="280" width="140" height="470" as="geometry" />
        </mxCell>
        <mxCell id="57fe6abec08f04cb-10" value="Lorem ipsum dolor sit amet, consectetur adipisicing elit, sed do eiusmod tempor incididunt ut labore et dolore magna aliqua. Ut enim ad minim veniam, quis nostrud exercitation ullamco laboris nisi ut aliquip ex ea commodo consequat. Duis aute irure dolor in reprehenderit in voluptate velit esse cillum dolore eu fugiat nulla pariatur. Excepteur sint occaecat cupidatat non proident, sunt in culpa qui officia deserunt mollit anim id est laborum.&lt;br&gt;Sed ut perspiciatis unde omnis iste natus error sit voluptatem accusantium doloremque laudantium, totam rem aperiam, eaque ipsa quae ab illo inventore veritatis et quasi architecto beatae vitae dicta sunt explicabo." style="text;spacingTop=-5;fillColor=#ffffff;whiteSpace=wrap;html=1;align=left;fontSize=12;fontFamily=Helvetica;fillColor=none;strokeColor=none;" parent="1" vertex="1">
          <mxGeometry x="400" y="280" width="140" height="470" as="geometry" />
        </mxCell>
        <mxCell id="57fe6abec08f04cb-11" value="Lorem ipsum dolor sit amet, consectetur adipisicing elit, sed do eiusmod tempor incididunt ut labore et dolore magna aliqua. Ut enim ad minim veniam, quis nostrud exercitation ullamco laboris nisi ut aliquip ex ea commodo consequat. Duis aute irure dolor in reprehenderit in voluptate velit esse cillum dolore eu fugiat nulla pariatur. Excepteur sint occaecat cupidatat non proident, sunt in culpa qui officia deserunt mollit anim id est laborum.&lt;br&gt;Sed ut perspiciatis unde omnis iste natus error sit voluptatem accusantium doloremque laudantium, totam rem aperiam, eaque ipsa quae ab illo inventore veritatis et quasi architecto beatae vitae dicta sunt explicabo." style="text;spacingTop=-5;fillColor=#ffffff;whiteSpace=wrap;html=1;align=left;fontSize=12;fontFamily=Helvetica;fillColor=none;strokeColor=none;" parent="1" vertex="1">
          <mxGeometry x="550" y="280" width="140" height="470" as="geometry" />
        </mxCell>
        <mxCell id="57fe6abec08f04cb-12" value="Lorem ipsum dolor sit amet, consectetur adipisicing elit, sed do eiusmod tempor incididunt ut labore et dolore magna aliqua. Ut enim ad minim veniam, quis nostrud exercitation ullamco laboris nisi ut aliquip ex ea commodo consequat. Duis aute irure dolor in reprehenderit in voluptate velit esse cillum dolore eu fugiat nulla pariatur. Excepteur sint occaecat cupidatat non proident, sunt in culpa qui officia deserunt mollit anim id est laborum.&lt;br&gt;Sed ut perspiciatis unde omnis iste natus error sit voluptatem accusantium doloremque laudantium, totam rem aperiam, eaque ipsa quae ab illo inventore veritatis et quasi architecto beatae vitae dicta sunt explicabo." style="text;spacingTop=-5;fillColor=#ffffff;whiteSpace=wrap;html=1;align=left;fontSize=12;fontFamily=Helvetica;fillColor=none;strokeColor=none;" parent="1" vertex="1">
          <mxGeometry x="700" y="280" width="140" height="470" as="geometry" />
        </mxCell>
        <mxCell id="57fe6abec08f04cb-13" value="Lorem ipsum dolor sit amet, consectetur adipisicing elit, sed do eiusmod tempor incididunt ut labore et dolore magna aliqua. Ut enim ad minim veniam, quis nostrud exercitation ullamco laboris nisi ut aliquip ex ea commodo consequat. Duis aute irure dolor in reprehenderit in voluptate velit esse cillum dolore eu fugiat nulla pariatur. Excepteur sint occaecat cupidatat non proident, sunt in culpa qui officia deserunt mollit anim id est laborum.&lt;br&gt;Sed ut perspiciatis unde omnis iste natus error sit voluptatem accusantium doloremque laudantium, totam rem aperiam, eaque ipsa quae ab illo inventore veritatis et quasi architecto beatae vitae dicta sunt explicabo." style="text;spacingTop=-5;fillColor=#ffffff;whiteSpace=wrap;html=1;align=left;fontSize=12;fontFamily=Helvetica;fillColor=none;strokeColor=none;" parent="1" vertex="1">
          <mxGeometry x="855" y="280" width="140" height="470" as="geometry" />
        </mxCell>
        <mxCell id="QD2z16ngsbT5WN4hHSJs-1" value="&lt;font face=&quot;helvetica neue, helvetica, tahoma, arial, pingfang sc, source han sans cn, source han sans, source han serif, hiragino sans gb, wenquanyi micro hei, microsoft yahei, sans-serif&quot; style=&quot;font-size: 28px&quot;&gt;gitlab&lt;br&gt;专案&lt;/font&gt;" style="shape=step;whiteSpace=wrap;html=1;fontSize=28;fillColor=#03A2FF;fontColor=#FFFFFF;strokeColor=none;" vertex="1" parent="1">
          <mxGeometry x="-60" y="180" width="170" height="80" as="geometry" />
        </mxCell>
        <mxCell id="QD2z16ngsbT5WN4hHSJs-2" value="gitlab上为开发者应用建立空专案，用于存放部署参数。&lt;br&gt;&lt;br&gt;表单内容：&lt;br&gt;&amp;nbsp;1. 租户名称(sid)（只读）&lt;br&gt;&amp;nbsp;&lt;br&gt;&lt;br&gt;&lt;br&gt;检核内容：&lt;br&gt;1. 查询租户部署参数文件列表&lt;br&gt;2.&amp;nbsp;&lt;span&gt;新增按钮【核检】，检查内容为：&lt;/span&gt;&lt;div&gt;&lt;span&gt;&amp;nbsp; &amp;nbsp; &amp;nbsp;① 参数key和value 首尾是否有空格&lt;/span&gt;&lt;br&gt;&lt;/div&gt;&lt;div&gt;&lt;span&gt;&amp;nbsp; &amp;nbsp; ② appid是否含有大写字母。&lt;/span&gt;&lt;/div&gt;&lt;div&gt;&lt;span&gt;&amp;nbsp; &amp;nbsp; ③各个参数是否按规则填写。&lt;/span&gt;&lt;br&gt;&lt;/div&gt;" style="text;spacingTop=-5;fillColor=#ffffff;whiteSpace=wrap;html=1;align=left;fontSize=12;fontFamily=Helvetica;fillColor=none;strokeColor=none;" vertex="1" parent="1">
          <mxGeometry x="-50" y="280" width="140" height="470" as="geometry" />
        </mxCell>
        <mxCell id="QD2z16ngsbT5WN4hHSJs-3" value="" style="text;html=1;strokeColor=none;fillColor=#61BAFF;align=center;verticalAlign=middle;whiteSpace=wrap;fontSize=54;fontStyle=1;fontColor=#004D99;" vertex="1" parent="1">
          <mxGeometry x="-390" y="180" width="310" height="530" as="geometry" />
        </mxCell>
        <mxCell id="QD2z16ngsbT5WN4hHSJs-6" value="&lt;font&gt;&lt;span style=&quot;font-family: &amp;quot;helvetica neue&amp;quot; , &amp;quot;helvetica&amp;quot; , &amp;quot;tahoma&amp;quot; , &amp;quot;arial&amp;quot; , &amp;quot;pingfang sc&amp;quot; , &amp;quot;source han sans cn&amp;quot; , &amp;quot;source han sans&amp;quot; , &amp;quot;source han serif&amp;quot; , &amp;quot;hiragino sans gb&amp;quot; , &amp;quot;wenquanyi micro hei&amp;quot; , &amp;quot;microsoft yahei&amp;quot; , sans-serif ; font-size: 18px&quot;&gt;【&lt;/span&gt;&lt;span style=&quot;font-family: &amp;quot;helvetica neue&amp;quot; , &amp;quot;helvetica&amp;quot; , &amp;quot;tahoma&amp;quot; , &amp;quot;arial&amp;quot; , &amp;quot;pingfang sc&amp;quot; , &amp;quot;source han sans cn&amp;quot; , &amp;quot;source han sans&amp;quot; , &amp;quot;source han serif&amp;quot; , &amp;quot;hiragino sans gb&amp;quot; , &amp;quot;wenquanyi micro hei&amp;quot; , &amp;quot;microsoft yahei&amp;quot; , sans-serif ; font-size: 18px&quot;&gt;部署&lt;/span&gt;&lt;span style=&quot;font-family: &amp;quot;helvetica neue&amp;quot; , &amp;quot;helvetica&amp;quot; , &amp;quot;tahoma&amp;quot; , &amp;quot;arial&amp;quot; , &amp;quot;pingfang sc&amp;quot; , &amp;quot;source han sans cn&amp;quot; , &amp;quot;source han sans&amp;quot; , &amp;quot;source han serif&amp;quot; , &amp;quot;hiragino sans gb&amp;quot; , &amp;quot;wenquanyi micro hei&amp;quot; , &amp;quot;microsoft yahei&amp;quot; , sans-serif ; font-size: 18px&quot;&gt;申请】&lt;/span&gt;&lt;/font&gt;" style="text;html=1;strokeColor=#b85450;fillColor=#f8cecc;align=center;verticalAlign=middle;whiteSpace=wrap;rounded=0;fontColor=#808080;" vertex="1" parent="1">
          <mxGeometry x="30" y="730" width="130" height="30" as="geometry" />
        </mxCell>
        <mxCell id="QD2z16ngsbT5WN4hHSJs-7" value="&lt;span&gt;哪朵云、哪个区&lt;/span&gt;&lt;br&gt;&lt;div style=&quot;font-size: 16px&quot;&gt;&lt;span style=&quot;font-size: 16px&quot;&gt;（支持批量操作只支持阿里云和微软云的正式区+测试区，华为云都需要手动）&lt;/span&gt;&lt;/div&gt;" style="text;html=1;strokeColor=none;fillColor=none;align=left;verticalAlign=middle;whiteSpace=wrap;rounded=1;fontColor=#FFFFFF;fontSize=16;" vertex="1" parent="1">
          <mxGeometry x="-340" y="532.5" width="240" height="40" as="geometry" />
        </mxCell>
        <mxCell id="QD2z16ngsbT5WN4hHSJs-11" value="&lt;div&gt;部署区域：&lt;/div&gt;" style="text;html=1;strokeColor=none;fillColor=none;align=left;verticalAlign=middle;whiteSpace=wrap;rounded=1;fontColor=#FFD966;fontSize=16;" vertex="1" parent="1">
          <mxGeometry x="-350" y="472.5" width="170" height="40" as="geometry" />
        </mxCell>
        <mxCell id="QD2z16ngsbT5WN4hHSJs-13" value="" style="group" vertex="1" connectable="0" parent="1">
          <mxGeometry x="-350" y="220" width="215" height="92.5" as="geometry" />
        </mxCell>
        <mxCell id="QD2z16ngsbT5WN4hHSJs-4" value="&lt;div style=&quot;font-size: 16px;&quot;&gt;&lt;span style=&quot;font-size: 16px;&quot;&gt;应用信息&lt;/span&gt;&lt;/div&gt;" style="text;html=1;strokeColor=none;fillColor=none;align=left;verticalAlign=middle;whiteSpace=wrap;rounded=1;fontColor=#FFD966;fontSize=16;" vertex="1" parent="QD2z16ngsbT5WN4hHSJs-13">
          <mxGeometry width="160" height="45" as="geometry" />
        </mxCell>
        <mxCell id="QD2z16ngsbT5WN4hHSJs-10" value="&lt;ol style=&quot;font-size: 16px&quot;&gt;&lt;li style=&quot;font-size: 16px&quot;&gt;appid&lt;/li&gt;&lt;li style=&quot;font-size: 16px&quot;&gt;应用名称（简体）&lt;/li&gt;&lt;li style=&quot;font-size: 16px&quot;&gt;应用类型&lt;/li&gt;&lt;li style=&quot;font-size: 16px&quot;&gt;&lt;font color=&quot;#ba7876&quot;&gt;应用部署类型（待定）&lt;/font&gt;&lt;/li&gt;&lt;/ol&gt;" style="text;html=1;strokeColor=none;fillColor=none;align=left;verticalAlign=middle;whiteSpace=wrap;rounded=1;fontColor=#FFFFFF;fontSize=16;" vertex="1" parent="QD2z16ngsbT5WN4hHSJs-13">
          <mxGeometry y="62.5" width="215" height="40" as="geometry" />
        </mxCell>
        <mxCell id="QD2z16ngsbT5WN4hHSJs-14" value="" style="group" vertex="1" connectable="0" parent="1">
          <mxGeometry x="-350" y="357.5" width="170" height="90" as="geometry" />
        </mxCell>
        <mxCell id="QD2z16ngsbT5WN4hHSJs-5" value="开发商信息:" style="text;html=1;strokeColor=none;fillColor=none;align=left;verticalAlign=middle;whiteSpace=wrap;rounded=1;fontColor=#FFD966;fontSize=16;" vertex="1" parent="QD2z16ngsbT5WN4hHSJs-14">
          <mxGeometry width="170" height="40" as="geometry" />
        </mxCell>
        <mxCell id="QD2z16ngsbT5WN4hHSJs-9" value="&lt;ol style=&quot;font-size: 16px;&quot;&gt;&lt;li style=&quot;font-size: 16px;&quot;&gt;开发商名称&lt;/li&gt;&lt;li style=&quot;font-size: 16px;&quot;&gt;租户id&lt;/li&gt;&lt;li style=&quot;font-size: 16px;&quot;&gt;sid&lt;/li&gt;&lt;/ol&gt;" style="text;html=1;strokeColor=none;fillColor=none;align=left;verticalAlign=middle;whiteSpace=wrap;rounded=1;fontColor=#FFFFFF;fontSize=16;" vertex="1" parent="QD2z16ngsbT5WN4hHSJs-14">
          <mxGeometry y="50" width="170" height="40" as="geometry" />
        </mxCell>
      </root>
    </mxGraphModel>
  </diagram>
</mxfile>
